# xmcd
#
# Track frame offsets: 
#        182
#        13242
#        29135
#        42305
#        58247
#        78637
#        91952
#        105960
#        119437
#        140617
#
# Disc length: 2058 seconds
#
# Revision: 0
# Processed by: cddbd v1.4PL0 Copyright (c) Steve Scherf et al.
# Submitted via: ExactAudioCopy v0.90b4
#
DISCID=8b08080a
DTITLE=Dan Seals - Rebel Heart
DYEAR=1900
DGENRE=Country
TTITLE0=You Really Go For The Heart
TTITLE1=After You
TTITLE2=Everybody's Dream Girl
TTITLE3=Down The Hall
TTITLE4=Up On The Hill
TTITLE5=Candle In The Rain
TTITLE6=God Must Be A Cowboy
TTITLE7=On A Night Like This
TTITLE8=The Banker
TTITLE9=Nothin' Left To Do But Cry
EXTD=
EXTT0=
EXTT1=
EXTT2=
EXTT3=
EXTT4=
EXTT5=
EXTT6=
EXTT7=
EXTT8=
EXTT9=
PLAYORDER=
